# xmcd CD database file
#
# Track frame offsets:
#	150
#	24487
#	40800
#	59212
#	83550
#	107887
#	132225
#	148537
#	164850
#	181162
#	199500
#	217835
#
# Disc length: 3146 seconds
#
# Revision: 0
# Processed by: cddbd v1.5.1PL0 Copyright (c) Steve Scherf et al.
# Submitted via: CDex 1.51
#
DISCID=a90c480c
DTITLE=O's[オズ] - あなたとならば｜初恋のひと
DYEAR=2005
DGENRE=JPop
TTITLE0=あなたとならば
TTITLE1=初恋のひと
TTITLE2=涙の誘惑
TTITLE3=あなたとならば（インストゥルメンタル）
TTITLE4=あなたとならば（聡美バージョン）
TTITLE5=あなたとならば（都弥可バージョン）
TTITLE6=初恋のひと（インストゥルメンタル）
TTITLE7=初恋のひと（聡美バージョン）
TTITLE8=初恋のひと（都弥可バージョン）
TTITLE9=涙の誘惑（インストゥルメンタル）
TTITLE10=涙の誘惑（聡美バージョン）
TTITLE11=涙の誘惑（都弥可バージョン）
EXTD=YEAR: 2005
EXTT0=
EXTT1=
EXTT2=
EXTT3=
EXTT4=
EXTT5=
EXTT6=
EXTT7=
EXTT8=
EXTT9=
EXTT10=
EXTT11=
PLAYORDER=
